<svg width="28" height="28" viewBox="0 0 28 28" fill="none" xmlns="http://www.w3.org/2000/svg">
<path d="M22.1559 8.13211H18.6707V6.97039C18.6707 5.73795 18.1811 4.556 17.3096 3.68453C16.4382 2.81307 15.2562 2.32349 14.0238 2.32349C12.7913 2.32349 11.6094 2.81307 10.7379 3.68453C9.86646 4.556 9.37688 5.73795 9.37688 6.97039V8.13211H5.89171C5.5836 8.13211 5.28811 8.25451 5.07024 8.47237C4.85238 8.69024 4.72998 8.98573 4.72998 9.29384V22.0728C4.72998 22.9971 5.09717 23.8836 5.75076 24.5372C6.40436 25.1908 7.29083 25.558 8.21516 25.558H19.8324C20.7567 25.558 21.6432 25.1908 22.2968 24.5372C22.9504 23.8836 23.3176 22.9971 23.3176 22.0728V9.29384C23.3176 8.98573 23.1952 8.69024 22.9773 8.47237C22.7595 8.25451 22.464 8.13211 22.1559 8.13211ZM11.7003 6.97039C11.7003 6.35417 11.9451 5.76319 12.3809 5.32746C12.8166 4.89173 13.4076 4.64694 14.0238 4.64694C14.64 4.64694 15.231 4.89173 15.6667 5.32746C16.1024 5.76319 16.3472 6.35417 16.3472 6.97039V8.13211H11.7003V6.97039ZM20.9941 22.0728C20.9941 22.3809 20.8717 22.6764 20.6539 22.8943C20.436 23.1121 20.1405 23.2345 19.8324 23.2345H8.21516C7.90705 23.2345 7.61156 23.1121 7.39369 22.8943C7.17583 22.6764 7.05343 22.3809 7.05343 22.0728V10.4556H9.37688V11.6173C9.37688 11.9254 9.49928 12.2209 9.71714 12.4388C9.93501 12.6566 10.2305 12.779 10.5386 12.779C10.8467 12.779 11.1422 12.6566 11.3601 12.4388C11.5779 12.2209 11.7003 11.9254 11.7003 11.6173V10.4556H16.3472V11.6173C16.3472 11.9254 16.4696 12.2209 16.6875 12.4388C16.9054 12.6566 17.2008 12.779 17.509 12.779C17.8171 12.779 18.1126 12.6566 18.3304 12.4388C18.5483 12.2209 18.6707 11.9254 18.6707 11.6173V10.4556H20.9941V22.0728Z" fill="#C5C5C5"/>
</svg>
