<svg width="22" height="22" viewBox="0 0 22 22" fill="none" xmlns="http://www.w3.org/2000/svg">
<mask id="path-1-inside-1_402_1324" fill="white">
<path fill-rule="evenodd" clip-rule="evenodd" d="M19.6763 16.7731C19.5564 16.4729 19.5918 16.1348 19.7532 15.8547C20.648 14.302 21.1598 12.5008 21.1598 10.58C21.1598 4.73683 16.423 0 10.5799 0C4.73678 0 0 4.73683 0 10.58C0 16.4232 4.73678 21.16 10.5799 21.16C12.4631 21.16 14.2314 20.668 15.7632 19.8054C15.9994 19.6724 16.2769 19.6278 16.5396 19.6947L19.4263 20.4299C20.2185 20.6316 20.905 19.8491 20.6017 19.0899L19.6763 16.7731Z"/>
</mask>
<path d="M15.7632 19.8054L14.5857 17.7142L15.7632 19.8054ZM16.5396 19.6947L15.9473 22.0204L16.5396 19.6947ZM19.4263 20.4299L18.8339 22.7556L19.4263 20.4299ZM20.6017 19.0899L18.373 19.9801L20.6017 19.0899ZM19.7532 15.8547L17.6738 14.6564L19.7532 15.8547ZM19.6763 16.7731L21.9051 15.8829L19.6763 16.7731ZM18.7598 10.58C18.7598 12.0691 18.3641 13.4584 17.6738 14.6564L21.8327 17.053C22.9318 15.1456 23.5598 12.9325 23.5598 10.58H18.7598ZM10.5799 2.4C15.0975 2.4 18.7598 6.06229 18.7598 10.58H23.5598C23.5598 3.41137 17.7485 -2.4 10.5799 -2.4V2.4ZM2.4 10.58C2.4 6.06229 6.06229 2.4 10.5799 2.4V-2.4C3.41128 -2.4 -2.4 3.41137 -2.4 10.58H2.4ZM10.5799 18.76C6.06229 18.76 2.4 15.0977 2.4 10.58H-2.4C-2.4 17.7486 3.41128 23.56 10.5799 23.56V18.76ZM14.5857 17.7142C13.404 18.3796 12.04 18.76 10.5799 18.76V23.56C12.8862 23.56 15.0588 22.9564 16.9408 21.8967L14.5857 17.7142ZM20.0186 18.1041L17.1319 17.3689L15.9473 22.0204L18.8339 22.7556L20.0186 18.1041ZM17.4476 17.6634L18.373 19.9801L22.8305 18.1996L21.9051 15.8829L17.4476 17.6634ZM16.9408 21.8967C16.6842 22.0412 16.331 22.1182 15.9473 22.0204L17.1319 17.3689C16.2227 17.1373 15.3147 17.3037 14.5857 17.7142L16.9408 21.8967ZM18.8339 22.7556C21.5277 23.4417 23.8616 20.781 22.8305 18.1996L18.373 19.9801C17.9484 18.9172 18.9094 17.8216 20.0186 18.1041L18.8339 22.7556ZM17.6738 14.6564C17.1776 15.5175 17.0321 16.6233 17.4476 17.6634L21.9051 15.8829C22.0807 16.3225 22.006 16.7522 21.8327 17.053L17.6738 14.6564Z" fill="#C5C5C5" mask="url(#path-1-inside-1_402_1324)"/>
</svg>
