<svg width="23" height="23" viewBox="0 0 23 23" fill="none" xmlns="http://www.w3.org/2000/svg">
  <path d="M21.3118 8.98466C21.0015 8.60954 20.6133 8.30757 20.1744 8.10007C19.7356 7.89256 19.2569 7.78458 18.7721 7.78375H13.7367L14.3551 6.19365C14.6123 5.49744 14.698 4.74878 14.6047 4.0119C14.5115 3.27503 14.2421 2.57192 13.8198 1.96291C13.3974 1.35389 12.8346 0.857142 12.1797 0.515267C11.5248 0.173392 10.7973 -0.00340195 10.0596 4.95835e-05C9.8472 0.000495881 9.63943 0.0626252 9.4612 0.178989C9.28296 0.295352 9.14185 0.461011 9.05476 0.656104L5.90768 7.78375H3.31272C2.43413 7.78375 1.59153 8.13521 0.970272 8.7608C0.349017 9.3864 0 10.2349 0 11.1196V18.9033C0 19.788 0.349017 20.6365 0.970272 21.2621C1.59153 21.8877 2.43413 22.2392 3.31272 22.2392H17.3697C18.1446 22.2389 18.895 21.9651 19.4902 21.4653C20.0853 20.9655 20.4877 20.2714 20.6272 19.5038L22.0296 11.7201C22.1163 11.239 22.097 10.7446 21.9729 10.2719C21.8489 9.79925 21.6232 9.35979 21.3118 8.98466ZM5.52119 20.0153H3.31272C3.01985 20.0153 2.73899 19.8981 2.5319 19.6896C2.32482 19.4811 2.20848 19.1982 2.20848 18.9033V11.1196C2.20848 10.8247 2.32482 10.5419 2.5319 10.3333C2.73899 10.1248 3.01985 10.0077 3.31272 10.0077H5.52119V20.0153ZM19.8763 11.3198L18.4739 19.1035C18.4269 19.3625 18.2901 19.5963 18.0879 19.7633C17.8856 19.9303 17.6311 20.0196 17.3697 20.0153H7.72967V9.12922L10.7332 2.32404C11.0424 2.4148 11.3295 2.56912 11.5765 2.77726C11.8234 2.98539 12.0249 3.24281 12.168 3.53329C12.3112 3.82376 12.3931 4.14097 12.4084 4.46489C12.4237 4.78882 12.3722 5.11242 12.257 5.41528L11.6718 7.00538C11.5471 7.34147 11.505 7.70296 11.5491 8.05899C11.5932 8.41502 11.7222 8.75502 11.925 9.04998C12.1279 9.34493 12.3986 9.58608 12.7141 9.75285C13.0296 9.91961 13.3804 10.007 13.7367 10.0077H18.7721C18.9343 10.0074 19.0946 10.0431 19.2415 10.1123C19.3885 10.1815 19.5185 10.2824 19.6223 10.408C19.7287 10.5318 19.8066 10.6777 19.8505 10.8353C19.8944 10.9929 19.9032 11.1583 19.8763 11.3198Z" fill="#C5C5C5"/>
</svg>
