<svg width="40" height="40" viewBox="0 0 40 40" fill="none" xmlns="http://www.w3.org/2000/svg">
<g clip-path="url(#clip0_248_1510)">
<path d="M24.8529 11.2251L8.24139 17.0277C7.61246 17.2468 7.05948 17.6415 6.64791 18.1652C6.23634 18.6888 5.98343 19.3194 5.9191 19.9822C5.85477 20.6451 5.98173 21.3126 6.28494 21.9056C6.58815 22.4985 7.05492 22.9922 7.62999 23.3282L12.7133 26.3459L15.0899 31.7742C15.3548 32.3898 15.7916 32.916 16.3479 33.2897C16.9042 33.6633 17.5564 33.8687 18.2264 33.8812C19.0892 33.8985 19.9277 33.5952 20.5796 33.0299C20.9219 32.7247 21.2005 32.355 21.3996 31.9418L29.1227 16.0718C29.4216 15.4516 29.5301 14.7568 29.4345 14.075C29.339 13.3932 29.0436 12.755 28.5857 12.2409C28.1278 11.7268 27.528 11.3598 26.8617 11.1862C26.1955 11.0127 25.4928 11.0403 24.8423 11.2657L24.8529 11.2251ZM19.3215 30.8836C19.2246 31.083 19.0728 31.2505 18.8838 31.3665C18.6949 31.4824 18.4767 31.5418 18.2551 31.5377C18.0431 31.5303 17.8372 31.465 17.6597 31.3488C17.4822 31.2326 17.3399 31.0701 17.2482 30.8788L15.0302 25.8381L26.9416 15.2298L19.3215 30.8836ZM13.4849 24.103L8.73856 21.3764C8.55912 21.2632 8.41407 21.1031 8.31916 20.9134C8.22425 20.7237 8.18309 20.5116 8.20015 20.3002C8.20552 20.1419 8.24322 19.9863 8.31094 19.843C8.37866 19.6998 8.47497 19.5719 8.59394 19.4672C8.71043 19.3639 8.84651 19.285 8.99409 19.2353L25.3963 13.4947L13.4849 24.103Z" fill="#C5C5C5"/>
</g>
<defs>
<clipPath id="clip0_248_1510">
<rect width="27.8814" height="27.8814" fill="white" transform="translate(0.223145 18.8019) rotate(-41.6885)"/>
</clipPath>
</defs>
</svg>
