<svg width="31" height="31" viewBox="0 0 31 31" fill="none" xmlns="http://www.w3.org/2000/svg">
<g clip-path="url(#clip0_248_1545)">
<rect width="21.5121" height="21.5121" transform="translate(0.791016 13.0327) rotate(-34.6864)" fill="white"/>
<path d="M20.365 9.54697L7.09814 12.4282C6.59589 12.5368 6.13529 12.7871 5.77086 13.1493C5.40643 13.5116 5.15344 13.9707 5.04183 14.4723C4.93021 14.9739 4.96466 15.497 5.14109 15.9796C5.31751 16.4622 5.62853 16.8842 6.03732 17.1956L9.6463 19.9847L10.9557 24.3652C11.1007 24.8616 11.3857 25.3056 11.7765 25.6441C12.1674 25.9826 12.6476 26.2012 13.1595 26.2737C13.8186 26.3682 14.4892 26.2148 15.0417 25.8432C15.3325 25.6417 15.5806 25.3847 15.7719 25.0871L23.179 13.6602C23.4662 13.2134 23.6147 12.6915 23.6056 12.1604C23.5965 11.6293 23.4304 11.1127 23.1281 10.676C22.8258 10.2392 22.4009 9.90171 21.9071 9.70613C21.4132 9.51055 20.8725 9.46562 20.3531 9.57701L20.365 9.54697ZM14.28 24.0812C14.1871 24.2248 14.0551 24.3388 13.8995 24.4098C13.7439 24.4808 13.5712 24.5058 13.4018 24.4818C13.2402 24.4562 13.0887 24.3868 12.9637 24.2811C12.8387 24.1755 12.745 24.0376 12.6928 23.8825L11.4683 19.8137L21.5879 12.8102L14.28 24.0812ZM10.4481 18.3397L7.06984 15.8051C6.94307 15.7016 6.84705 15.5654 6.79221 15.4112C6.73737 15.257 6.7258 15.0907 6.75875 14.9304C6.77776 14.8096 6.82126 14.694 6.8866 14.5907C6.95193 14.4873 7.03771 14.3985 7.13866 14.3295C7.23759 14.2613 7.34922 14.2137 7.46692 14.1896L20.5677 11.3361L10.4481 18.3397Z" fill="#4F4F4F"/>
</g>
<defs>
<clipPath id="clip0_248_1545">
<rect width="21.5121" height="21.5121" fill="white" transform="translate(0.791016 13.0327) rotate(-34.6864)"/>
</clipPath>
</defs>
</svg>
